PathFileType	4	(X/Y/Z)	/Users/itak/Documents/Research/Walk-IL/dataset/trc/00019_00004.trc
DataRate	CameraRate	NumFrames	NumMarkers	Units	OrigDataRate	OrigDataStartFrame	OrigNumFrames
100.000000	100.000000	4	53	mm	100.000000	795	909
Frame#	Time	RPSI			LPSI			L3			STRN			T10			C7			CLAV			RBAK			LBAK			LSHO			LUPA			LAEL			LAOL			LWTS			LWPS			LFRA			LIFD			LHPS			LHTS			RSHO			RUPA			RAEL			RAOL			RWTS			RWPS			RFRA			RIFD			RHTS			RHPS			RBHD			LFHD			RFHD			LBHD			LHIP			RHIP			RASI			LASI			LKNE			LTHI			LANK			LTIP			LTOE			LMT1			LMT5			LHEE			RKNE			RTHI			RANK			RTIP			RTOE			RMT1			RMT5			RHEE			
		X1	Y1	Z1	X2	Y2	Z2	X3	Y3	Z3	X4	Y4	Z4	X5	Y5	Z5	X6	Y6	Z6	X7	Y7	Z7	X8	Y8	Z8	X9	Y9	Z9	X10	Y10	Z10	X11	Y11	Z11	X12	Y12	Z12	X13	Y13	Z13	X14	Y14	Z14	X15	Y15	Z15	X16	Y16	Z16	X17	Y17	Z17	X18	Y18	Z18	X19	Y19	Z19	X20	Y20	Z20	X21	Y21	Z21	X22	Y22	Z22	X23	Y23	Z23	X24	Y24	Z24	X25	Y25	Z25	X26	Y26	Z26	X27	Y27	Z27	X28	Y28	Z28	X29	Y29	Z29	X30	Y30	Z30	X31	Y31	Z31	X32	Y32	Z32	X33	Y33	Z33	X34	Y34	Z34	X35	Y35	Z35	X36	Y36	Z36	X37	Y37	Z37	X38	Y38	Z38	X39	Y39	Z39	X40	Y40	Z40	X41	Y41	Z41	X42	Y42	Z42	X43	Y43	Z43	X44	Y44	Z44	X45	Y45	Z45	X46	Y46	Z46	X47	Y47	Z47	X48	Y48	Z48	X49	Y49	Z49	X50	Y50	Z50	X51	Y51	Z51	X52	Y52	Z52	X53	Y53	Z53	

796	7.95	-229.8524475097656	1080.520629882812	896.827392578125	-238.1391296386719	1073.9033203125	733.83056640625	-235.0811004638672	1144.236083984375	811.8490600585938	8.839268684387207	1311.22705078125	819.0045166015625	-243.8072967529297	1290.7470703125	820.3256225585938	-166.7913360595703	1551.683837890625	817.039794921875	-22.91048622131348	1439.528930664062	818.771728515625	-235.7815399169922	1419.956298828125	894.8675537109375	-189.7986602783203	1516.582275390625	717.9938354492188	-86.31084442138672	1510.420288085938	644.8427734375	-139.3218383789062	1397.160522460938	563.6172485351562	-187.2654113769531	1188.049926757812	527.8892822265625	-236.6785583496094	1181.186157226562	620.9321899414062	-131.6437225341797	924.7623901367188	560.833740234375	-215.2330627441406	921.2450561523438	529.0669555664062	-194.8204956054688	1072.320678710938	514.7421264648438	-125.4767227172852	735.4752807617188	567.5116577148438	-194.3103790283203	827.7913818359375	523.669921875	-124.7631759643555	829.889404296875	540.9786987304688	-90.41842651367188	1522.438598632812	989.6770629882812	-113.5491790771484	1453.719116210938	1061.591064453125	-182.4564056396484	1197.994750976562	1106.293701171875	-200.2647857666016	1166.954223632812	1010.817810058594	-88.53982543945312	927.5701293945312	1062.591064453125	-141.4181213378906	917.698974609375	1137.953491210938	-176.2409362792969	1121.06982421875	1122.932495117188	-90.64026641845703	744.497802734375	1032.224731445312	-66.26544952392578	815.951416015625	1064.139038085938	-112.4096221923828	811.5620727539062	1123.412109375	-82.92263031005859	1723.392944335938	757.9238891601562	104.0858993530273	1702.512084960938	868.5785522460938	97.06927490234375	1700.306274414062	769.9811401367188	-67.13065338134766	1721.34521484375	901.2510375976562	-147.1850738525391	973.2918701171875	619.3907470703125	-120.0085525512695	959.1521606445312	991.8140258789062	-19.24162292480469	987.0778198242188	918.824951171875	-31.26078414916992	1013.199401855469	684.12158203125	-35.59328079223633	529.2828369140625	676.0802001953125	-83.60824584960938	662.43896484375	635.4496459960938	-196.7051849365234	48.52634048461914	694.5637817382812	-142.9144287109375	295.3568420410156	667.3502807617188	11.68916988372803	58.57558822631836	781.3283081054688	-48.64379501342773	66.322265625	791.2603149414062	-72.12380218505859	47.60860443115234	690.6627197265625	-270.9810791015625	62.17270660400391	734.638427734375	-92.22168731689453	527.2008666992188	939.22265625	-96.33456420898438	794.5399780273438	986.6683959960938	-206.5915985107422	45.36296463012695	865.0147094726562	-116.5410003662109	400.1037902832031	928.7351684570312	26.4192943572998	45.02411270141602	897.4815063476562	-24.43788528442383	51.59694671630859	849.78662109375	-73.11530303955078	42.16407775878906	934.634033203125	-246.4155578613281	50.1793212890625	805.0380249023438	
797	7.96	-227.7876739501953	1080.1884765625	898.66259765625	-236.3986663818359	1073.391845703125	735.6442260742188	-233.4913330078125	1143.411987304688	813.6688232421875	9.409673690795898	1311.722290039062	819.9165649414062	-242.8612670898438	1289.925537109375	822.2842407226562	-167.2519989013672	1551.3046875	818.9043579101562	-22.7452220916748	1439.938110351562	819.8582153320312	-235.1810150146484	1419.142578125	896.9094848632812	-190.5613708496094	1516.132080078125	719.8978271484375	-87.40882873535156	1510.589111328125	646.2615966796875	-140.0448303222656	1397.071533203125	565.1859130859375	-186.7687530517578	1187.645629882812	529.5153198242188	-235.8564605712891	1180.48046875	622.7133178710938	-129.9334259033203	924.5304565429688	562.3073120117188	-213.5529022216797	920.7178955078125	530.6676635742188	-193.8054656982422	1071.875610351562	516.360595703125	-123.0665664672852	735.2689819335938	568.9551391601562	-192.2921295166016	827.3458251953125	525.2337646484375	-122.7231369018555	829.6842041015625	542.4340209960938	-89.97267150878906	1522.405395507812	991.1627197265625	-112.437141418457	1453.4365234375	1063.113647460938	-179.3551483154297	1197.074340820312	1107.62353515625	-197.2365875244141	1166.034301757812	1012.149841308594	-83.472900390625	927.4138793945312	1063.268798828125	-136.0843811035156	917.0737915039062	1138.752075195312	-172.5323638916016	1120.160400390625	1124.125	-84.21366882324219	744.312744140625	1032.995971679688	-60.29000473022461	815.9517211914062	1064.800903320312	-106.2361373901367	811.208984375	1124.1875	-85.46680450439453	1723.588623046875	759.7586059570312	102.5963897705078	1704.09765625	868.8628540039062	94.81141662597656	1701.996704101562	770.3154296875	-68.52476501464844	1721.433959960938	902.92724609375	-145.287353515625	972.9323120117188	621.1450805664062	-117.5424957275391	959.0014038085938	993.3016357421875	-16.90634346008301	987.1619262695312	920.093505859375	-29.41293716430664	1013.310302734375	685.46826171875	-33.43432998657227	529.1422729492188	678.8736572265625	-80.86676788330078	662.2470092773438	637.5900268554688	-193.8646392822266	48.02965545654297	692.7303466796875	-139.7708282470703	295.0872802734375	667.239501953125	12.46933555603027	57.94744491577148	784.634521484375	-48.15802764892578	65.76342010498047	793.0286865234375	-69.20805358886719	47.02922058105469	691.85009765625	-269.1196594238281	61.6364860534668	731.19970703125	-91.67670440673828	526.9457397460938	939.9017944335938	-94.39239501953125	794.2403564453125	987.8529052734375	-206.5574951171875	45.35798263549805	864.96826171875	-116.2822952270508	399.94580078125	929.1836547851562	26.39629173278809	45.0434455871582	897.5147705078125	-24.46035766601562	51.61307144165039	849.8204956054688	-73.18091583251953	42.12743377685547	934.6649169921875	-246.3797149658203	50.19876861572266	805.0475463867188	
798	7.97	-225.8106231689453	1079.856201171875	900.3602905273438	-234.620361328125	1072.904418945312	737.3251342773438	-231.9194793701172	1142.599365234375	815.3496704101562	9.919245719909668	1312.216186523438	820.7835083007812	-241.9421997070312	1289.10498046875	824.1331787109375	-167.7689514160156	1550.927612304688	820.681640625	-22.63874053955078	1440.351440429688	820.8978881835938	-234.6410217285156	1418.331909179688	898.8521118164062	-191.3444366455078	1515.669555664062	721.7233276367188	-88.50653076171875	1510.75634765625	647.6246337890625	-140.7831878662109	1396.972045898438	566.6796875	-186.2593231201172	1187.246337890625	531.046142578125	-235.0476379394531	1179.777465820312	624.3846435546875	-128.1698760986328	924.32568359375	563.6951293945312	-211.8129730224609	920.1964721679688	532.1738891601562	-192.7524566650391	1071.436645507812	517.8815307617188	-120.5464324951172	735.0952758789062	570.3132934570312	-190.1895294189453	826.9166259765625	526.700927734375	-120.6007232666016	829.504638671875	543.802734375	-89.59263610839844	1522.372802734375	992.588134765625	-111.4225006103516	1453.16064453125	1064.563720703125	-176.3382568359375	1196.174926757812	1108.845703125	-194.2708587646484	1165.1357421875	1013.365600585938	-78.50585174560547	927.2832641601562	1063.868041992188	-130.8706665039062	916.484619140625	1139.453369140625	-168.9111328125	1119.273315429688	1125.215576171875	-77.86684417724609	744.1589965820312	1033.70751953125	-54.41598129272461	815.982666015625	1065.40185546875	-100.204704284668	810.8952026367188	1124.88427734375	-88.07074737548828	1723.770263671875	761.570556640625	101.0478363037109	1705.670043945312	869.1051025390625	92.47829437255859	1703.689697265625	770.615478515625	-69.94895935058594	1721.493530273438	904.5802612304688	-143.3164825439453	972.6082763671875	622.8027954101562	-115.2055435180664	958.8416748046875	994.7161865234375	-14.67328834533691	987.2445068359375	921.3532104492188	-27.51042175292969	1013.428100585938	686.7974853515625	-31.49984359741211	528.9762573242188	681.385009765625	-78.13960266113281	662.111572265625	639.6040649414062	-191.7369537353516	47.6889762878418	690.8568115234375	-137.1753540039062	294.8829956054688	666.9931030273438	12.79600143432617	57.23417282104492	787.182373046875	-48.08045959472656	65.10832214355469	794.2526245117188	-67.01992034912109	46.53995895385742	692.5831909179688	-267.7883911132812	61.23866271972656	728.0465087890625	-91.20148468017578	526.7078247070312	940.5269775390625	-92.5672607421875	793.9407348632812	988.9752807617188	-206.5294342041016	45.34160614013672	864.919921875	-116.1000366210938	399.7988586425781	929.5833740234375	26.37294960021973	45.06452941894531	897.545654296875	-24.48836517333984	51.62685775756836	849.8487548828125	-73.27265167236328	42.07785415649414	934.7030029296875	-246.3446044921875	50.20215225219727	805.0596923828125	
799	7.98	-223.9292602539062	1079.530517578125	901.9076538085938	-232.7997283935547	1072.458740234375	738.8553466796875	-230.3654937744141	1141.80224609375	816.8781127929688	10.37493133544922	1312.71533203125	821.6138916015625	-241.0506744384766	1288.289672851562	825.8652954101562	-168.3438568115234	1550.555297851562	822.3692626953125	-22.58417701721191	1440.77197265625	821.897705078125	-234.1585083007812	1417.527587890625	900.692138671875	-192.146240234375	1515.199462890625	723.469970703125	-89.59173583984375	1510.929565429688	648.937744140625	-141.5290222167969	1396.866577148438	568.1035766601562	-185.7340393066406	1186.859741210938	532.4882202148438	-234.2497253417969	1179.085327148438	625.9537963867188	-126.3483200073242	924.157958984375	564.9998168945312	-210.0191345214844	919.689208984375	533.5907592773438	-191.6632385253906	1071.01318359375	519.3121948242188	-117.9210815429688	734.9592895507812	571.5869140625	-188.0097351074219	826.5111694335938	528.07275390625	-118.4059829711914	829.357177734375	545.0869140625	-89.28605651855469	1522.344970703125	993.9570922851562	-110.5030975341797	1452.896606445312	1065.942504882812	-173.4033813476562	1195.298706054688	1109.954467773438	-191.3571319580078	1164.260986328125	1014.458984375	-73.63922882080078	927.1788940429688	1064.396240234375	-125.7854156494141	915.9348754882812	1140.057373046875	-165.3766937255859	1118.412475585938	1126.199584960938	-71.60247802734375	744.0355224609375	1034.373413085938	-48.64707565307617	816.0427856445312	1065.95068359375	-94.32202911376953	810.625	1125.507080078125	-90.72321319580078	1723.941650390625	763.3583374023438	99.44385528564453	1707.232421875	869.3071899414062	90.07710266113281	1705.384643554688	770.8856201171875	-71.39688873291016	1721.53125	906.2089233398438	-141.2738342285156	972.3330078125	624.3560180664062	-113.0183868408203	958.6756591796875	996.0532836914062	-12.55550479888916	987.328125	922.6194458007812	-25.54858207702637	1013.552978515625	688.1197509765625	-29.85819435119629	528.7876586914062	683.53662109375	-75.52724456787109	662.0328979492188	641.4496459960938	-190.2668304443359	47.49115371704102	689.0850219726562	-135.1776275634766	294.7383728027344	666.7001342773438	12.85081195831299	56.47138977050781	788.86083984375	-48.21843719482422	64.39351654052734	794.902099609375	-65.50391387939453	46.17180633544922	692.8458251953125	-266.8992309570312	60.95407104492188	725.3599853515625	-90.77132415771484	526.4938354492188	941.1033935546875	-90.86893463134766	793.6419677734375	990.0382080078125	-206.5077819824219	45.32067489624023	864.86962890625	-115.9720153808594	399.6708679199219	929.9344482421875	26.35389518737793	45.08654022216797	897.5733642578125	-24.51728439331055	51.63884353637695	849.87255859375	-73.3885498046875	42.01595306396484	934.7489624023438	-246.3051300048828	50.19620513916016	805.0652465820312	
